<?xml version="1.0" encoding="iso-8859-1"?>
<!-- Generator: Adobe Illustrator 21.0.0, SVG Export Plug-In . SVG Version: 6.00 Build 0)  -->
<svg version="1.1" id="Capa_1" xmlns="http://www.w3.org/2000/svg" xmlns:xlink="http://www.w3.org/1999/xlink" x="0px" y="0px"
	 viewBox="0 0 512 512" style="enable-background:new 0 0 512 512;" xml:space="preserve">
<g id="XMLID_1442_">
	<g id="XMLID_1443_">
		<g id="XMLID_1444_">
			<g id="XMLID_1445_">
				<g id="XMLID_1446_">
					<g id="XMLID_1447_">
						<path style="fill:#93A3AF;" d="M408,161h-13V82h13c5.523,0,10,4.477,10,10v59C418,156.523,413.523,161,408,161z"/>
						<path style="fill:#93A3AF;" d="M104,252h13v-39h-13c-5.523,0-10,4.477-10,10v19C94,247.523,98.477,252,104,252z"/>
						<path style="fill:#93A3AF;" d="M104,181h13V82h-13c-5.523,0-10,4.477-10,10v79C94,176.523,98.477,181,104,181z"/>
						<path style="fill:#93A3AF;" d="M104,314h13v-39h-13c-5.523,0-10,4.477-10,10v19C94,309.523,98.477,314,104,314z"/>
						<path style="fill:#7B8C98;" d="M114.418,484.5v-457c0-11.046,8.954-20,20-20h243.163c11.046,0,20,8.954,20,20v457
							c0,11.046-8.954,20-20,20H134.418C123.373,504.5,114.418,495.546,114.418,484.5z"/>
						<path id="XMLID_1448_" style="fill:#627687;" d="M397.58,27.5v457c0,11.05-8.95,20-20,20H358c11.05,0,20-8.95,20-20v-457
							c0-11.05-8.95-20-20-20h19.58C388.63,7.5,397.58,16.45,397.58,27.5z"/>
						<rect x="114.418" y="58" style="fill:#FAAA3C;" width="283.163" height="396"/>
						<rect x="378" y="58" style="fill:#E79732;" width="19.582" height="396"/>
					</g>
				</g>
			</g>
		</g>
		<circle style="fill:#EBEEF2;" cx="256" cy="381.167" r="32.333"/>
		<path style="fill:#EBEEF2;" d="M310.006,153H201.994c-10.766,0-19.494-8.728-19.494-19.494v-7.594
			c0-10.766,8.728-19.494,19.494-19.494h108.012c10.766,0,19.494,8.728,19.494,19.494v7.594C329.5,144.272,320.772,153,310.006,153z
			"/>
	</g>
	<g id="XMLID_1449_">
		<path id="XMLID_1450_" d="M408,74.5h-2.918v-47c0-15.164-12.337-27.5-27.5-27.5H208.397c-4.143,0-7.5,3.358-7.5,7.5
			s3.357,7.5,7.5,7.5h169.185c6.893,0,12.5,5.607,12.5,12.5v23H121.918v-23c0-6.893,5.607-12.5,12.5-12.5h41.318
			c4.143,0,7.5-3.358,7.5-7.5s-3.357-7.5-7.5-7.5h-41.318c-15.163,0-27.5,12.336-27.5,27.5v47H104c-9.649,0-17.5,7.851-17.5,17.5v79
			c0,9.649,7.851,17.5,17.5,17.5h2.918v17H104c-9.649,0-17.5,7.851-17.5,17.5v19c0,9.649,7.851,17.5,17.5,17.5h2.918v8H104
			c-9.649,0-17.5,7.851-17.5,17.5v19c0,9.649,7.851,17.5,17.5,17.5h2.918v20.848c0,4.142,3.357,7.5,7.5,7.5s7.5-3.358,7.5-7.5V65.5
			h268.164v180.853c0,4.142,3.357,7.5,7.5,7.5s7.5-3.358,7.5-7.5V168.5H408c9.649,0,17.5-7.851,17.5-17.5V92
			C425.5,82.351,417.649,74.5,408,74.5z M104,173.5c-1.379,0-2.5-1.122-2.5-2.5V92c0-1.378,1.121-2.5,2.5-2.5h2.918v84H104z
			 M104,244.5c-1.379,0-2.5-1.122-2.5-2.5v-19c0-1.378,1.121-2.5,2.5-2.5h2.918v24H104z M104,306.5c-1.379,0-2.5-1.122-2.5-2.5v-19
			c0-1.378,1.121-2.5,2.5-2.5h2.918v24H104z M410.5,151c0,1.378-1.121,2.5-2.5,2.5h-2.918v-64H408c1.379,0,2.5,1.122,2.5,2.5V151z"
			/>
		<path id="XMLID_1456_" d="M397.582,271.514c-4.143,0-7.5,3.358-7.5,7.5V446.5H121.918v-71.491c0-4.142-3.357-7.5-7.5-7.5
			s-7.5,3.358-7.5,7.5V484.5c0,15.164,12.337,27.5,27.5,27.5h243.164c15.163,0,27.5-12.336,27.5-27.5V279.014
			C405.082,274.872,401.725,271.514,397.582,271.514z M377.582,497H134.418c-6.893,0-12.5-5.607-12.5-12.5v-23h268.164v23
			C390.082,491.393,384.475,497,377.582,497z"/>
		<path id="XMLID_1459_" d="M275.582,41.833c4.143,0,7.5-3.358,7.5-7.5s-3.357-7.5-7.5-7.5h-39.164c-4.143,0-7.5,3.358-7.5,7.5
			s3.357,7.5,7.5,7.5H275.582z"/>
		<path id="XMLID_1460_" d="M216.167,381.167C216.167,403.131,234.036,421,256,421s39.833-17.869,39.833-39.833
			c0-21.964-17.869-39.833-39.833-39.833S216.167,359.203,216.167,381.167z M280.833,381.167C280.833,394.86,269.693,406,256,406
			s-24.833-11.14-24.833-24.833c0-13.693,11.14-24.833,24.833-24.833S280.833,367.474,280.833,381.167z"/>
		<path id="XMLID_1463_" d="M154.5,384.333c0,4.142,3.357,7.5,7.5,7.5h17.333c4.143,0,7.5-3.358,7.5-7.5s-3.357-7.5-7.5-7.5H162
			C157.857,376.833,154.5,380.191,154.5,384.333z"/>
		<path id="XMLID_1464_" d="M325.167,384.333c0,4.142,3.357,7.5,7.5,7.5H350c4.143,0,7.5-3.358,7.5-7.5s-3.357-7.5-7.5-7.5h-17.333
			C328.524,376.833,325.167,380.191,325.167,384.333z"/>
		<path id="XMLID_1465_" d="M310.006,98.918H201.994c-14.885,0-26.994,12.109-26.994,26.994v7.594
			c0,14.885,12.109,26.994,26.994,26.994h108.012c14.885,0,26.994-12.109,26.994-26.994v-7.594
			C337,111.028,324.891,98.918,310.006,98.918z M322,133.506c0,6.614-5.381,11.994-11.994,11.994H201.994
			c-6.613,0-11.994-5.38-11.994-11.994v-7.594c0-6.613,5.381-11.994,11.994-11.994h108.012c6.613,0,11.994,5.38,11.994,11.994
			V133.506z"/>
		<path id="XMLID_1468_" d="M221,120c-4.143,0-7.5,3.358-7.5,7.5v3.5c0,4.142,3.357,7.5,7.5,7.5s7.5-3.358,7.5-7.5v-3.5
			C228.5,123.358,225.143,120,221,120z"/>
		<path id="XMLID_1469_" d="M296.5,121.75H244c-4.143,0-7.5,3.358-7.5,7.5s3.357,7.5,7.5,7.5h52.5c4.143,0,7.5-3.358,7.5-7.5
			S300.643,121.75,296.5,121.75z"/>
		<path id="XMLID_1470_" d="M320.5,289.085v-49.803c0-10.594-8.618-19.212-19.212-19.212h-11.577l-1.884-9.063
			c-1.842-8.868-9.753-15.304-18.81-15.304h-26.035c-9.057,0-16.968,6.436-18.81,15.303l-1.884,9.063h-11.577
			c-10.594,0-19.212,8.619-19.212,19.212v49.803c0,10.593,8.618,19.212,19.212,19.212h90.576
			C311.882,308.297,320.5,299.678,320.5,289.085z M206.5,289.085v-49.803c0-2.323,1.89-4.212,4.212-4.212h17.679
			c3.554,0,6.62-2.494,7.343-5.974l3.125-15.038c0.404-1.944,2.139-3.354,4.124-3.354h26.035c1.985,0,3.72,1.411,4.124,3.355
			l3.125,15.037c0.723,3.48,3.789,5.974,7.343,5.974h17.679c2.322,0,4.212,1.89,4.212,4.212v49.803c0,2.322-1.89,4.212-4.212,4.212
			h-90.576C208.39,293.297,206.5,291.407,206.5,289.085z"/>
		<path id="XMLID_1473_" d="M256,238.041c-11.993,0-21.75,9.757-21.75,21.75s9.757,21.75,21.75,21.75s21.75-9.757,21.75-21.75
			S267.993,238.041,256,238.041z M256,266.541c-3.722,0-6.75-3.028-6.75-6.75s3.028-6.75,6.75-6.75s6.75,3.028,6.75,6.75
			S259.722,266.541,256,266.541z"/>
	</g>
</g>
<g>
</g>
<g>
</g>
<g>
</g>
<g>
</g>
<g>
</g>
<g>
</g>
<g>
</g>
<g>
</g>
<g>
</g>
<g>
</g>
<g>
</g>
<g>
</g>
<g>
</g>
<g>
</g>
<g>
</g>
</svg>
